<svg width="64" height="105" viewBox="0 0 64 105" fill="none" xmlns="http://www.w3.org/2000/svg">
<path d="M21.475 70.9445C29.0609 82.0303 36.3084 92.6212 44.0255 103.894C30.7831 100.369 18.2882 97.0354 5.55078 93.6465C5.94472 92.8384 6.22755 92.1818 6.57603 91.5606C10.6669 84.3232 14.768 77.0909 18.8791 69.8636C19.2478 69.2121 19.6164 68.495 20.172 68.0303C26.1013 63.0758 32.071 58.1667 38.0306 53.2424C38.268 53.3838 38.5003 53.5253 38.7377 53.6616C38.3892 54.3131 38.167 55.096 37.667 55.596C33.0508 60.1364 28.3942 64.6313 23.7276 69.1162C23.0659 69.7525 22.2983 70.2778 21.475 70.9445Z" fill="#ED876A"/>
<path d="M23.3535 70.7121C32.0606 62.2777 40.2929 54.308 48.7424 46.1262C49.8586 47.4343 50.8788 48.6111 51.8788 49.808C55.101 53.6868 58.2677 57.6111 61.5505 61.4394C62.5404 62.5909 62.7727 63.5454 62.197 65.0252C60.2172 70.1111 60.2879 70.106 54.9242 70.1919C45.4293 70.3383 35.9343 70.5353 26.4394 70.707C25.6313 70.7222 24.8283 70.707 23.3586 70.707L23.3535 70.7121Z" fill="#F3A43A"/>
<path d="M45.4702 71.6919C45.2126 81.798 44.955 92.0252 44.6974 102.247C44.5106 102.328 44.3288 102.409 44.1419 102.49C37.2176 92.3939 30.2884 82.2929 23.0156 71.6919H45.4702Z" fill="#93D1C1"/>
<path d="M23.3379 3.30315C30.4743 16.1011 39.4288 43.5809 39.4288 43.5809C39.7874 45.8132 40.6056 47.9698 40.9288 50.2072C41.0854 51.2779 40.5904 52.4496 40.3884 53.5708C40.1005 53.5607 39.8177 53.5456 39.5298 53.5355C36.1207 47.3688 33.0753 40.9648 29.2167 35.091C24.4945 27.9092 24.2419 26.5153 24.2419 26.5153C24.2419 26.5153 23.3379 6.14658 23.3379 3.2981V3.30315Z" fill="#93D1C1"/>
<path d="M45.1618 4.23745C45.4042 10.5304 45.6668 16.8183 45.879 23.1112C46.1264 30.4193 46.2376 37.7374 46.6012 45.0405C46.7123 47.2981 45.9042 48.6516 43.7982 49.8031C43.0052 44.7779 42.2982 39.9041 41.4547 35.0556C40.7022 30.7223 41.4547 28.2829 37.6315 22.495C37.3032 22.1263 37.2982 21.1819 37.5204 20.6566C39.8537 15.1162 42.2628 9.60109 44.6517 4.08594C44.8234 4.13644 44.9901 4.18695 45.1618 4.23745Z" fill="#ED876A"/>
<path d="M27.2728 7.82828C30.8789 13.3788 35.8132 20.1818 38.9294 25.9949C40.3587 28.6616 40.192 32.1919 40.7072 35.3333C41.4445 39.8131 42.1566 44.2929 42.8435 48.7778C42.9445 49.4343 42.6011 50.2677 42.1718 51.0101C42.1718 51.0101 31.5657 16.1616 23.7375 3.28282C23.49 3.38383 23.9849 3.18181 23.7375 3.28282L27.2728 7.82828Z" fill="#A5BBF9"/>
<path d="M48.5047 101.444C46.3381 101.409 45.4643 100.717 45.5552 98.5606C45.8785 90.7626 46.0047 82.9495 46.2067 75.1465C46.2219 74.4747 46.1411 73.7677 46.328 73.1414C46.5249 72.4747 46.9845 71.8788 47.333 71.2576C47.5754 71.8737 48.0098 72.4848 48.03 73.1061C48.2269 80.4091 48.3684 87.7121 48.5047 95.0151C48.5451 97.1061 48.5098 99.197 48.5098 101.444H48.5047Z" fill="#A5BBF9"/>
<path d="M9.67628 84.3232C8.05001 87.1565 6.57526 89.7272 4.85809 92.707C3.63587 88.4141 2.56011 84.6211 1.33789 80.3181C4.35304 81.7676 6.86819 82.9747 9.67628 84.3232Z" fill="#F3A43A"/>
</svg>
