<svg width="92" height="81" viewBox="0 0 92 81" fill="none" xmlns="http://www.w3.org/2000/svg">
<path d="M30.5391 19.7329C36.0384 21.1902 41.2034 22.5182 46.3327 23.9799C46.8363 24.1225 47.3354 25.0093 47.4646 25.6288C48.8684 32.3758 50.1474 39.1451 51.5779 45.8877C51.8854 47.3405 51.5378 48.1916 50.3925 49.0696C48.2757 50.6962 46.3505 52.5723 44.2115 54.1677C43.5073 54.6936 42.2996 55.0412 41.4752 54.8406C34.2825 53.0759 27.1121 51.2042 19.964 49.2523C19.202 49.0428 18.333 48.2362 18.0389 47.5009C16.742 44.2744 15.5789 40.9856 14.5227 37.67C14.3133 37.0149 14.5227 35.8919 14.9862 35.4017C19.661 30.4239 24.4205 25.5307 29.1799 20.6331C29.5944 20.2053 30.196 19.9557 30.5302 19.7374L30.5391 19.7329Z" fill="#F3A43A"/>
<path d="M30.3892 78.941C34.1683 71.6369 37.9072 64.3105 41.7843 57.0555C42.2299 56.2221 43.4733 55.8389 44.2844 55.166C46.6284 53.2274 48.8745 51.1596 51.2943 49.3191C52.502 48.3966 52.7115 47.4519 52.4129 46.0838C51.6063 42.4027 50.8932 38.7039 50.1134 34.8714C50.9155 34.6842 51.535 34.5416 52.4753 34.3232C55.2917 44.4884 58.0904 54.5911 60.9648 64.9745C50.8754 69.7385 40.795 74.4979 30.7145 79.2618C30.6031 79.1549 30.4962 79.0479 30.3848 78.941H30.3892Z" fill="#ED876A"/>
<path d="M26.6499 77.7113C24.4574 75.0107 22.6436 72.7825 20.8387 70.5543C17.4296 66.3563 13.9848 62.1851 10.6558 57.9248C10.1701 57.3053 9.8492 56.1466 10.0765 55.4425C11.5382 50.9505 13.1737 46.5163 14.8761 41.7212C15.2237 42.4253 15.4242 42.8487 15.6336 43.2631C20.8521 53.7313 23.1427 65.1486 26.3246 76.2763C26.4004 76.5437 26.4494 76.82 26.6544 77.7113H26.6499Z" fill="#ED876A"/>
<path d="M2.47838 5.17822C10.9768 10.2585 19.4752 15.3433 28.2945 20.6197C24.9878 23.5922 21.8505 26.4086 18.5794 29.3499C13.3743 21.7695 7.80826 13.6633 2.24219 5.55256L2.48283 5.17822H2.47838Z" fill="#93D1C1"/>
<path d="M27.2145 76.557C24.8036 67.8536 22.3971 59.1457 19.8926 50.0947C23.6493 51.0662 27.0585 51.9486 30.7484 52.9067C29.7101 60.8392 28.6851 68.7003 27.6557 76.5614C27.5086 76.5614 27.3615 76.5614 27.2145 76.5614V76.557Z" fill="#93D1C1"/>
<path d="M76.8647 28.1601C67.9474 30.112 59.0346 32.0595 49.9524 34.0471C49.3285 30.9454 48.7536 28.0621 48.1074 24.8579C57.818 25.8116 67.3235 26.743 76.8291 27.6744C76.838 27.8348 76.8514 27.9952 76.8603 28.1601H76.8647Z" fill="#93D1C1"/>
<path d="M29.8633 77.3592C30.612 69.4178 31.3651 61.4765 32.1405 53.29C35.2689 54.0967 38.2458 54.8632 41.5347 55.7143C37.7155 63.0986 33.9766 70.3225 30.2421 77.5508C30.1173 77.4884 29.9925 77.426 29.8633 77.3637V77.3592Z" fill="#A5BBF9"/>
<path d="M77.4621 26.6318C65.4966 26.5783 49.0345 24.4437 46.3027 22.7547C50.3046 21.3554 54.1683 19.9828 58.0543 18.6771C58.4866 18.53 59.0927 18.637 59.5339 18.8286C65.3094 21.3198 71.0671 23.851 76.8293 26.3689C77.0387 26.458 77.2482 26.5472 77.4576 26.6318H77.4621Z" fill="#A5BBF9"/>
<path d="M32.3087 18.8687C31.052 19.1718 30.0048 19.4614 28.9397 19.6664C28.6233 19.7288 28.2133 19.6441 27.9325 19.4793C19.9288 14.7198 11.9384 9.93805 4.06836 4.87109C10.7441 6.66258 17.4198 8.4496 24.0911 10.2634C24.5011 10.3748 24.9423 10.6065 25.223 10.914C27.6473 13.5968 30.036 16.3107 32.3087 18.8732V18.8687Z" fill="#A5BBF9"/>
<path d="M62.7461 8.97501C63.9315 6.21202 64.8584 3.89468 65.9414 1.65755C66.1508 1.22974 66.9663 0.859854 67.5011 0.855398C73.9986 0.801921 80.496 0.819747 86.9935 0.819747C87.0292 1.1005 87.0604 1.38126 87.096 1.66647C79.1636 4.0462 71.2356 6.42593 62.7461 8.97501Z" fill="#F3A43A"/>
<path d="M65.3183 1.02474C63.4198 5.41878 61.5481 9.82619 59.5784 14.1846C59.3734 14.6347 58.5846 15.009 58.0275 15.0803C55.4517 15.3967 52.867 15.7844 50.2823 15.7755C48.21 15.7711 46.9934 16.5821 46.0977 18.329C45.5273 19.4432 44.783 20.477 44.0477 21.502C43.8026 21.8407 43.3481 22.0234 42.9916 22.2774C42.8178 22.1348 42.6484 21.9878 42.4746 21.8452C43.8472 19.7328 45.1663 17.5804 46.6414 15.5438C46.9355 15.1382 47.8179 15.0803 48.4418 15.0179C51.1691 14.7461 53.9232 14.6436 56.6282 14.2336C57.4393 14.1088 58.4554 13.3334 58.8119 12.5847C60.4786 9.11761 61.918 5.54356 63.5045 2.03635C63.7585 1.47484 64.3289 1.0604 64.7567 0.579102C64.9439 0.73062 65.1311 0.877682 65.3183 1.0292V1.02474Z" fill="#93D1C1"/>
<path d="M46.8541 21.716C47.2641 20.1206 47.4958 18.8951 47.9147 17.7409C48.0707 17.3175 48.6455 16.8095 49.0778 16.7605C52.2285 16.3995 55.3926 16.1455 58.9533 16.3059C58.4229 16.9031 58.004 17.7988 57.34 18.0484C54.0334 19.3096 50.6599 20.4058 46.8496 21.716H46.8541Z" fill="#ED876A"/>
</svg>
