<svg width="145" height="116" viewBox="0 0 145 116" fill="none" xmlns="http://www.w3.org/2000/svg">
<path d="M76.6255 23.7759C84.4283 49.2846 91.9943 74.008 99.6974 99.1863C78.8317 104.216 58.0471 109.227 36.5645 114.412C49.9763 84.0606 63.1264 54.314 76.6255 23.7821V23.7759Z" fill="#F3A43A"/>
<path d="M58.5016 62.2975C50.9481 42.0925 43.6938 22.679 36.1465 2.49268C49.8076 9.60993 62.7022 16.3283 75.7962 23.1464C70.0687 36.1158 64.4348 48.8608 58.4954 62.2975H58.5016Z" fill="#93D1C1"/>
<path d="M124.887 39.2319C116.68 59.1877 108.752 78.4641 100.469 98.6005C95.8949 83.6743 91.551 69.5208 87.1074 55.012C99.5221 49.8268 111.868 44.6727 124.887 39.2319Z" fill="#ED876A"/>
<path d="M35.4373 114.306C26.9864 106.977 18.8719 99.9408 10.1094 92.3374C21.8946 93.185 32.7824 93.964 44.0566 94.7742C41.1336 101.399 38.3852 107.625 35.4373 114.306Z" fill="#A5BBF9"/>
<path d="M141.847 54.1147C133.801 54.819 126.621 55.4484 119.012 56.1215C121.218 50.7555 123.256 45.7946 125.481 40.3726C130.865 44.8972 136.038 49.2348 141.847 54.1147Z" fill="#A5BBF9"/>
<path d="M19.3821 101.897C13.6609 104.989 8.30739 107.88 2.25586 111.146C4.755 104.858 7.00485 99.2051 9.38558 93.2222C12.8071 96.1887 15.9045 98.8748 19.3821 101.891V101.897Z" fill="#93D1C1"/>
</svg>
