<svg width="62" height="108" viewBox="0 0 62 108" fill="none" xmlns="http://www.w3.org/2000/svg">
<path d="M60.0156 100.153C48.1201 100.153 36.6901 100.176 25.2546 100.098C24.6061 100.098 23.7303 99.4772 23.3422 98.8952C15.8923 87.6759 8.49771 76.4233 0.925781 64.9213C8.23718 58.4025 15.5153 51.9226 22.7159 45.5037C35.1436 63.7129 47.5159 81.85 60.0101 100.153H60.0156Z" fill="#F3A43A"/>
<path d="M27.0941 106.395C18.7018 103.923 11.0357 101.689 3.39721 99.3607C2.88724 99.2055 2.27195 98.3685 2.24423 97.8197C1.75089 87.8143 1.3407 77.8034 1.52917 67.5708C9.89376 80.2757 18.2584 92.975 27.0941 106.395Z" fill="#93D1C1"/>
<path d="M26.3473 47.7874C32.8993 50.6532 39.4623 53.4968 45.9811 56.4402C46.5132 56.6841 46.8846 57.5544 47.0952 58.2085C51.1473 70.9022 56.2917 85.4142 59.867 98.3907C48.8861 82.3156 36.7795 64.4334 25.793 48.3583C25.9759 48.1698 26.1588 47.9758 26.3417 47.7874H26.3473Z" fill="#93D1C1"/>
<path d="M38.9567 25.0494C44.9766 17.4664 50.7802 10.1494 57.0717 2.22827C57.8699 12.86 58.6071 22.7268 59.3832 33.1146C52.4321 30.3708 45.8524 27.771 38.9512 25.0494H38.9567Z" fill="#ED876A"/>
<path d="M35.7707 26.0028C31.9237 32.1058 28.3484 37.7764 24.4848 43.8905C18.6257 35.8529 12.9274 28.0427 6.72461 19.5339C16.7688 21.7678 26.0757 23.841 35.7707 25.9972V26.0028Z" fill="#A5BBF9"/>
<path d="M60.747 34.7055C57.0774 40.2653 53.7349 45.5479 50.1097 50.6309C49.4889 51.5012 48.3188 53.5688 46.8388 54.0455C44.034 45.1709 40.7085 34.6723 37.8594 25.6536C45.7528 28.7744 53.0476 31.6623 60.7525 34.7055H60.747Z" fill="#F3A43A"/>
<path d="M36.9175 25.9807C39.6558 34.5892 42.9648 44.3894 45.4537 52.3826C46.008 54.1564 46.0246 55.3094 44.345 54.5999C38.5968 52.1775 30.2934 48.4471 24.3789 45.8473C28.5584 39.2233 32.5717 32.8653 36.9175 25.9807Z" fill="#ED876A"/>
<path d="M48.2251 55.4314L60.6971 36.5847V98.1136L47.9479 57.9258C47.623 56.8924 47.6865 56.3482 48.2251 55.4314Z" fill="#A5BBF9"/>
</svg>
