<svg width="81" height="91" viewBox="0 0 81 91" fill="none" xmlns="http://www.w3.org/2000/svg">
<path d="M39.7381 0.99204C39.2846 21.1308 38.8311 41.2696 38.3728 61.7579C34.9668 62.0886 31.5796 62.4146 27.9751 62.7594C26.9405 57.9267 25.9296 53.2687 24.9375 48.6013C23.9077 43.7639 22.8684 38.9311 21.9141 34.0795C21.7629 33.3095 21.8055 32.3174 22.1692 31.6513C27.531 21.693 32.9543 11.7724 38.3823 1.85182C38.5854 1.48334 38.9397 1.1999 39.2231 0.878662C39.3932 0.916455 39.568 0.954247 39.7381 0.99204Z" fill="#F3A43A"/>
<path d="M52.3703 62.7217C49.158 62.4524 46.196 62.1548 43.2245 61.9706C41.6278 61.8713 41.8545 60.7706 41.8356 59.7786C41.6467 50.6564 41.4813 41.5294 41.2876 32.4072C41.0798 22.652 40.8436 12.9015 40.6215 3.15101C40.6074 2.4235 40.6215 1.69599 40.6215 0.96848C40.8294 0.916515 41.042 0.86455 41.2498 0.807861C41.6278 1.43144 42.034 2.04085 42.3836 2.6786C47.5754 12.1976 52.786 21.7072 57.907 31.264C58.3652 32.1191 58.5116 33.3568 58.3179 34.3205C56.4141 43.7025 54.4111 53.0657 52.3703 62.7264V62.7217Z" fill="#F3A43A"/>
<path d="M41.1191 62.6792C48.4982 62.8256 55.2111 64.5216 62.0232 66.0239C67.6165 67.2568 71.1974 70.7338 75.4963 74.6548C68.6747 73.9509 62.4153 73.3084 56.1559 72.6612C54.4363 72.4817 52.7168 72.1132 51.0019 72.1274C48.8005 72.1415 47.4022 71.1967 46.207 69.4157C44.6953 67.1576 42.9379 65.0649 41.1191 62.6839V62.6792Z" fill="#ED876A"/>
<path d="M4.81445 74.6735C9.07085 70.8092 12.5336 67.3181 18.0277 66.0899C24.906 64.5498 31.6898 62.8114 39.2294 62.7122C36.8673 65.7592 34.7084 68.6031 32.4503 71.3714C32.1291 71.7635 31.3496 71.8722 30.7638 71.9383C22.3455 72.8453 13.9225 73.724 4.81445 74.6783V74.6735Z" fill="#ED876A"/>
<path d="M68.3379 88.2222C68.678 83.2194 68.952 79.1756 69.2496 74.8767C71.5928 75.1176 73.7895 75.3397 76.2177 75.59C74.6823 79.4402 73.3879 83.0399 71.7629 86.4838C71.3991 87.2538 69.8779 87.4806 68.3379 88.2222Z" fill="#A5BBF9"/>
<path d="M11.9432 87.3672C9.95438 87.9011 8.75447 87.6743 8.05058 85.5721C6.96404 82.3219 5.52319 79.1899 4.0918 75.661C6.41605 75.3728 8.53243 75.113 11.022 74.8059C11.3338 79.0529 11.6362 83.2006 11.9432 87.372V87.3672Z" fill="#A5BBF9"/>
<path d="M40.2535 24.9291C40.537 36.6401 40.8299 48.3511 41.0661 60.0668C41.0755 60.5959 40.5606 61.1392 40.2913 61.6777C39.9464 61.2006 39.2992 60.7187 39.3087 60.251C39.5024 48.3983 39.7669 36.5456 40.0173 24.6929C40.0976 24.7732 40.1779 24.8535 40.2582 24.9291H40.2535Z" fill="#93D1C1"/>
<path d="M4.42188 32.1002C8.683 31.0042 12.9488 29.9082 17.3989 28.7603C17.7202 29.9129 17.9847 30.8577 18.3437 32.1427C13.563 32.3931 9.04675 32.6293 4.53053 32.8702C4.49274 32.6151 4.45967 32.3553 4.42188 32.1002Z" fill="#93D1C1"/>
<path d="M75.7456 32.875C71.2625 32.6435 66.784 32.412 61.9844 32.1664C62.2914 31.0043 62.5513 30.0122 62.8772 28.7698C67.3273 29.9036 71.5884 30.9901 75.8448 32.0766C75.8118 32.3412 75.7787 32.6105 75.7456 32.875Z" fill="#93D1C1"/>
<path d="M44.5762 68.0693C46.2958 73.3414 50.6939 72.9351 54.7188 73.3414C58.0729 73.6815 61.427 74.0406 64.7669 74.4657C59.3059 74.4657 53.8496 74.4941 48.3885 74.4232C47.8358 74.4138 47.0941 73.913 46.7823 73.4217C45.8233 71.91 45.0297 70.2944 44.1699 68.7213C44.3069 68.504 44.4439 68.2914 44.5762 68.0741V68.0693Z" fill="#93D1C1"/>
<path d="M15.5088 74.3854C20.4171 73.8752 25.3207 73.1524 30.2432 72.9399C33.0257 72.8218 33.8194 70.5873 35.7657 69.4062C34.9626 70.8802 34.2303 72.4013 33.3139 73.8044C33.0541 74.2012 32.2651 74.4327 31.7171 74.4374C26.3033 74.4846 20.8943 74.4657 15.4805 74.4657C15.4899 74.4374 15.5041 74.4091 15.5135 74.3854H15.5088Z" fill="#93D1C1"/>
<path d="M22.9634 45.3182C21.4423 39.9328 19.9211 34.5426 18.3008 28.7981C19.8314 29.039 21.0171 29.228 22.5902 29.4736C20.403 31.7365 20.9274 34.0277 21.4848 36.3614C22.184 39.3139 22.7792 42.2901 23.4217 45.2521C23.2705 45.2757 23.1193 45.2946 22.9682 45.3182H22.9634Z" fill="#A5BBF9"/>
<path d="M56.8739 45.2757C57.5022 42.3798 58.1069 39.4745 58.7682 36.5881C59.3115 34.2119 60.0673 31.8357 57.6722 29.4878C59.3304 29.2233 60.5067 29.0343 62.0137 28.7981C60.3697 34.6087 58.8249 40.065 57.2801 45.5213C57.1431 45.441 57.0061 45.3607 56.8691 45.2851L56.8739 45.2757Z" fill="#A5BBF9"/>
<path d="M76.6579 31.1223C74.5982 30.82 73.729 27.7588 74.3809 22.1702C75.132 25.1227 75.8831 28.08 76.6579 31.1223Z" fill="#ED876A"/>
<path d="M78.0318 88.6475C73.4872 90.6269 70.4496 90.6552 69.1836 88.6475H78.0318Z" fill="#ED876A"/>
<path d="M6.03787 21.6174C6.89293 25.5384 5.67884 30.6404 3.61914 31.349C4.41751 28.1272 5.16864 25.118 6.03787 21.6174Z" fill="#ED876A"/>
<path d="M11.011 88.6475C8.22849 91.7748 5.36098 88.7656 2.53125 88.6475H11.011Z" fill="#ED876A"/>
</svg>
