<svg width="116" height="81" viewBox="0 0 116 81" fill="none" xmlns="http://www.w3.org/2000/svg">
<path d="M105.501 80.0365C102.718 80.0365 99.974 80.0365 97.23 80.0365C96.2517 80.0365 95.2735 80.056 94.3001 80.0658C86.0664 80.1604 79.142 77.0088 73.5267 70.6109C74.0501 69.98 74.5735 69.3001 75.1458 68.6593C83.0208 59.8598 90.8615 51.0359 98.8148 42.3098C100.292 40.6859 100.928 39.0914 100.879 36.8903C100.732 30.3066 100.82 30.3017 94.5006 28.3452C92.0941 27.6017 89.7218 26.7066 87.2664 26.1539C78.8191 24.2512 72.5876 18.3816 64.8789 14.1115C69.9854 11.5289 74.6566 9.14681 79.3425 6.79898C82.1045 5.41311 84.6023 5.74409 86.836 7.79192C92.9061 13.3435 99.0006 18.8658 105.002 24.4859C105.731 25.1658 106.387 26.374 106.377 27.3327C106.215 44.2664 105.951 61.205 105.697 78.1386C105.692 78.6131 105.599 79.0827 105.496 80.0316L105.501 80.0365Z" fill="#F3A43A"/>
<path d="M25.2637 47.5289C28.8979 41.6544 32.18 36.3376 35.4767 31.0305C38.9936 25.3615 42.5642 19.7267 46.0321 14.0234C47.9398 10.8881 51.4762 10.399 54.2887 8.74082C54.6213 8.54517 55.4821 9.06854 56.0104 9.40115C63.5821 14.18 71.1441 18.9636 78.6914 23.7816C81.1615 25.3566 82.2724 29.2708 79.6849 30.6159C71.4529 34.8909 61.8213 40.0452 53.643 44.418C51.0702 45.7925 48.4974 46.6289 45.5675 46.7071C38.9936 46.8783 32.4196 47.2256 25.2686 47.5289H25.2637Z" fill="#ED876A"/>
<path d="M50.2729 79.9679C49.9892 68.9233 49.7202 58.451 49.4414 47.6706C50.4294 47.9201 51.1191 48.0619 51.7843 48.2722C56.1327 49.6467 60.5642 50.801 64.7854 52.4836C68.9333 54.1369 73.0566 53.9657 77.2485 53.2907C78.0115 53.1684 78.892 52.3565 79.2881 51.6326C81.0392 48.419 82.5898 45.0929 84.3164 41.8646C84.6392 41.263 85.4121 40.5244 85.999 40.5097C90.23 40.3923 94.4659 40.4461 99.0539 40.4461C98.4963 41.1749 98.1197 41.7374 97.6746 42.2364C86.8599 54.3228 76.055 66.4239 65.1621 78.4418C64.4137 79.2635 63.0099 79.8456 61.88 79.8994C58.0794 80.0804 54.2691 79.9679 50.2631 79.9679H50.2729Z" fill="#93D1C1"/>
<path d="M50.8887 46.8195C60.9354 42.2608 71.1142 35.8076 80.7061 31.4543C81.9827 34.7658 82.1637 39.9472 80.7061 43.3368C79.6544 45.7776 79.1946 48.4678 78.3387 51.0015C78.1235 51.6374 77.4093 52.5374 76.8908 52.5618C73.3789 52.7281 69.9158 53.5401 66.3452 52.0825C61.4979 50.1064 56.4256 48.6733 50.8936 46.8195H50.8887Z" fill="#F3A43A"/>
<path d="M24.378 47.3087C19.6236 41.6495 15.1432 36.3131 10.291 30.5413C13.0888 30.4142 15.3291 29.4017 17.7796 30.8593C21.81 33.2609 25.9774 35.4424 30.2671 37.8147C28.2812 41.0087 26.4128 44.0218 24.3731 47.3087H24.378Z" fill="#A5BBF9"/>
<path d="M48.5616 47.2207C48.8258 57.3946 49.0801 67.2164 49.3443 77.2729C46.7959 77.3854 44.4725 77.4881 41.7383 77.6055C43.5578 67.456 45.3187 57.5805 47.1334 47.7147C47.1676 47.5337 47.8084 47.4702 48.5616 47.2207Z" fill="#A5BBF9"/>
<path d="M98.3833 39.5461C94.5045 39.5461 90.6208 39.6488 86.7469 39.5021C85.0007 39.4336 84.0861 40.0548 83.4257 41.5858C82.6676 43.3515 81.7138 45.039 80.6426 46.7119C83.0344 40.0744 83.8781 33.132 81.7236 25.9238C87.6567 30.5363 93.0909 34.7624 98.5252 38.9934C98.4763 39.1793 98.4274 39.3651 98.3785 39.5461H98.3833Z" fill="#A5BBF9"/>
<path d="M29.8818 36.6456C30.0873 36.0342 30.2291 35.3934 30.5079 34.8211C34.465 26.7016 38.427 18.5869 42.4134 10.4869C43.734 7.80646 46.5612 7.52766 48.7378 6.22168C48.9775 6.4369 49.2172 6.65211 49.4568 6.86733L30.7867 37.0516C30.4835 36.9195 30.1802 36.7825 29.877 36.6505L29.8818 36.6456Z" fill="#F3A43A"/>
<path d="M83.8805 25.9434C88.6838 27.4303 93.4724 28.9564 98.2952 30.37C99.6256 30.7613 100.09 31.3923 100.002 32.7716C99.8751 34.6792 99.968 36.5966 99.968 39.0374C94.2012 34.5521 88.855 30.3944 83.5039 26.2319C83.6311 26.1341 83.7534 26.0412 83.8805 25.9434Z" fill="#93D1C1"/>
<path d="M63.1509 10.2718C61.6346 11.4457 60.2943 11.4946 59.0813 10.2963C55.5596 6.82833 52.1405 7.99246 48.4329 10.3109C49.0835 9.093 49.734 7.87018 50.4628 6.51528C49.734 6.01148 49.0346 5.52724 48.252 4.9892C49.8905 3.69789 51.4802 2.44572 53.202 1.08594C56.5721 4.19681 59.8346 7.20985 63.1509 10.2718Z" fill="#93D1C1"/>
<path d="M113.918 61.7429H106.943V53.6184C109.413 56.4945 111.512 58.945 113.918 61.7429Z" fill="#ED876A"/>
<path d="M62.1544 11.7879C66.2974 10.4086 70.4403 9.03413 74.5832 7.65479L74.7985 8.13413C71.4088 9.84609 68.0533 11.6363 64.5952 13.1869C63.9887 13.4559 62.9273 12.7026 62.0762 12.4238C62.1006 12.2135 62.13 12.0032 62.1544 11.7879Z" fill="#A5BBF9"/>
</svg>
