<svg width="108" height="77" viewBox="0 0 108 77" fill="none" xmlns="http://www.w3.org/2000/svg">
<path d="M56.0326 26.2231C64.1138 28.9116 71.9482 31.5214 80.0347 34.2151C75.2196 45.2001 70.4885 55.9803 65.7574 66.771C58.5005 54.216 56.2374 40.6213 56.0273 26.2284L56.0326 26.2231Z" fill="#F3A43A"/>
<path d="M27.2734 34.2203C35.4439 31.5004 43.2836 28.8906 51.3018 26.2231C51.1023 40.49 48.8759 54.0637 41.5403 66.6922C36.8459 56.0118 32.1463 45.3051 27.2734 34.2203Z" fill="#F3A43A"/>
<path d="M94.1387 2.03223C89.4811 12.6654 85.0021 22.8838 80.439 33.3122C78.3911 32.661 76.4955 32.0729 74.6104 31.4533C68.8081 29.5315 63.0006 27.6201 57.2193 25.6405C56.5734 25.42 55.8803 24.8634 55.5967 24.2753C55.4655 23.997 56.1376 23.0781 56.6417 22.7893C68.7189 15.9158 80.8276 9.08426 92.931 2.25802C93.1306 2.14775 93.3984 2.1635 94.144 2.03748L94.1387 2.03223Z" fill="#ED876A"/>
<path d="M26.858 33.2596C22.3159 22.8837 17.8211 12.6181 13.0742 1.7854C14.1874 2.26324 14.7913 2.46277 15.3374 2.76733C26.8895 9.28376 38.4416 15.8002 49.9622 22.3691C50.6921 22.784 51.1751 23.6346 51.7737 24.2857C51.0544 24.7898 50.4033 25.4987 49.6051 25.7718C42.7579 28.1084 35.8844 30.3716 29.0214 32.6505C28.3755 32.8658 27.7086 33.0233 26.858 33.2596Z" fill="#ED876A"/>
<path d="M26.3607 34.3885C22.3489 37.5654 18.8098 35.1132 15.2287 33.9159C14.8506 33.7899 14.588 33.1283 14.3885 32.661C10.256 23.0307 6.134 13.3952 2.01725 3.75971C1.96474 3.63368 2.04351 3.44465 2.10127 2.9248C6.30728 4.79414 10.4345 6.57947 14.4935 8.49607C15.0921 8.77962 15.507 9.65653 15.8115 10.3444C19.3454 18.3311 22.8373 26.3388 26.3659 34.3885H26.3607Z" fill="#93D1C1"/>
<path d="M105.776 2.66235C104.027 6.7581 102.604 10.0977 101.176 13.4373C98.5349 19.6072 95.9619 25.8086 93.1842 31.9207C92.6906 33.0129 91.4881 34.0578 90.3644 34.5304C87.3714 35.7854 84.2365 37.1821 81.002 34.3361C83.5224 28.5496 86.4787 22.7945 88.5423 16.7349C90.5902 10.7226 94.0716 6.7686 100.231 5.1093C101.89 4.66297 103.413 3.7283 105.776 2.6676V2.66235Z" fill="#93D1C1"/>
<path d="M35.8794 74.2064C31.3793 66.2355 26.8687 58.275 22.4159 50.283C22.1166 49.7422 22.1481 48.9388 22.2216 48.2824C22.5524 45.3314 23.1511 42.3961 23.2718 39.4398C23.3663 37.0874 24.217 35.8587 26.9107 35.7747C27.3781 36.7933 27.9294 37.9433 28.444 39.109C30.7334 44.3022 32.9126 49.5427 35.3228 54.6781C36.9138 58.065 37.9797 61.3731 37.1974 65.2325C36.6145 68.1048 36.6618 71.1031 36.4255 74.0436C36.2417 74.0961 36.0632 74.1539 35.8794 74.2064Z" fill="#A5BBF9"/>
<path d="M80.3283 35.8221C82.854 35.7801 83.899 36.7882 84.025 39.2247C84.1825 42.265 84.7916 45.2843 85.1592 48.3193C85.2275 48.8969 85.1382 49.5165 85.0017 50.0889C84.9019 50.4985 84.6079 50.8608 84.3926 51.2441C80.071 58.9 75.7495 66.5611 71.1287 74.1488C71.0026 67.5956 68.3299 61.1789 71.9583 54.589C75.2612 48.5819 77.5978 42.0444 80.3283 35.8221Z" fill="#A5BBF9"/>
<path d="M93.2246 7.26721C93.2246 6.75786 93.1983 6.66335 93.2246 6.58458C95.4195 0.419963 97.4516 -0.399186 104.252 2.32606C100.539 3.98536 96.9895 5.5764 93.2246 7.26196V7.26721Z" fill="#F3A43A"/>
<path d="M14.5298 7.46697C10.3133 5.57663 6.77938 3.98559 3.24023 2.3998C3.25599 2.23177 3.27699 2.06374 3.29274 1.89571C5.77119 1.5859 8.24439 1.22884 10.7281 1.0188C11.1587 0.982045 11.8465 1.47038 12.0618 1.89571C12.8757 3.5025 13.5374 5.18806 14.5298 7.46697Z" fill="#F3A43A"/>
<path d="M54.1732 53.8853V44.5071C56.6464 44.5123 57.6966 46.1296 56.8407 48.8549C56.2789 50.6507 55.3809 52.3363 54.6301 54.0743C54.4778 54.0113 54.3202 53.9483 54.168 53.8853H54.1732Z" fill="#A5BBF9"/>
<path d="M68.9826 62.3289C69.3449 66.5244 69.6547 70.1318 69.9697 73.7707C65.832 70.5151 65.5642 68.2414 68.9826 62.3289Z" fill="#ED876A"/>
<path d="M53.2131 43.4307V54.0008C51.6799 51.4174 49.5375 48.9809 50.6612 45.6938C50.9132 44.9534 51.9792 44.4914 53.2131 43.4359V43.4307Z" fill="#A5BBF9"/>
<path d="M37.3809 74.028C37.6854 70.0846 37.9585 66.5139 38.242 62.8645C41.8547 66.4246 41.7129 68.7771 37.3809 74.028Z" fill="#ED876A"/>
<path d="M54.7628 35.4543C56.6321 37.7648 55.9443 40.679 56.5639 43.3938C53.8386 43.0892 53.4081 41.3722 54.7628 35.4543Z" fill="#93D1C1"/>
<path d="M50.9769 43.5093C50.8613 37.7858 51.2184 36.3207 52.8987 35.4648C54.0382 40.3115 53.4658 42.937 50.9769 43.5093Z" fill="#93D1C1"/>
<path d="M54.8456 26.848C55.0819 29.358 55.3182 31.8627 55.5492 34.3726C55.2867 34.3989 55.0241 34.4252 54.7669 34.4462C53.3333 32.078 54.4728 29.442 54.1 26.9635C54.3468 26.9215 54.5988 26.8848 54.8456 26.8428V26.848Z" fill="#A5BBF9"/>
<path d="M51.7227 34.3727C51.9905 31.8155 52.253 29.2635 52.5208 26.7063C52.7676 26.7326 53.0144 26.7588 53.2612 26.7851C52.9986 29.3475 53.9701 32.015 52.6258 34.4777C52.3265 34.441 52.0272 34.4094 51.7227 34.3727Z" fill="#A5BBF9"/>
</svg>
