<svg width="115" height="123" viewBox="0 0 115 123" fill="none" xmlns="http://www.w3.org/2000/svg">
<path d="M74.1321 80.2327C72.4346 84.8214 70.833 89.3081 69.0696 93.7288C68.7936 94.4186 67.8519 95.0124 67.0841 95.3183C45.8743 103.794 24.6466 112.221 3.41878 120.655C3.09487 120.781 2.76497 120.889 1.86523 121.213C2.89693 119.191 3.64071 117.698 4.41449 116.228C9.68095 106.259 15.1214 96.374 20.1539 86.291C22.2833 82.0322 25.2284 78.9611 29.0193 76.1659C32.9421 73.2748 36.5411 72.435 41.3757 73.5807C51.7586 76.034 62.3035 77.7794 72.7765 79.8189C73.1484 79.8908 73.5023 80.0408 74.1321 80.2327Z" fill="#ED876A"/>
<path d="M73.832 78.9309C60.9598 76.4296 48.7894 74.0663 35.7852 71.5411C43.3609 64.937 50.4089 58.7888 57.6967 52.4307C63.0592 61.2361 68.2597 69.7776 73.826 78.9309H73.832Z" fill="#93D1C1"/>
<path d="M18.3134 3.0293C21.7264 10.6591 25.1514 18.2888 28.5584 25.9246C33.6389 37.3153 38.6715 48.7239 43.812 60.0786C44.5378 61.6741 44.6637 62.6818 43.1042 63.8455C40.9568 65.447 39.0134 67.3185 36.5661 69.4359C30.2559 47.1524 24.0537 25.2588 17.8516 3.3652C18.0075 3.25123 18.1635 3.13727 18.3194 3.0293H18.3134Z" fill="#F3A43A"/>
<path d="M79.7533 34.2318C79.0935 52.4425 78.4337 70.6591 77.7739 88.8698C77.6599 88.8878 77.54 88.9118 77.426 88.9298C77.2881 88.4859 77.0541 88.0481 77.0181 87.5982C76.5323 81.6479 73.959 76.5554 70.732 71.6729C70.1621 70.8091 70.0482 69.3695 70.2581 68.3078C72.2975 57.9369 74.4029 47.5839 76.6342 37.2549C76.9042 35.9953 78.0378 34.9156 78.7696 33.752L79.7593 34.2378L79.7533 34.2318Z" fill="#F3A43A"/>
<path d="M82.7344 77.8754V68.8721H109.858C109.924 69.028 109.984 69.178 110.05 69.3339C107.867 70.2997 105.678 71.2594 103.5 72.2251C99.7634 73.8866 95.9425 75.3862 92.3256 77.2756C89.1465 78.9371 86.0634 78.7392 82.7344 77.8754Z" fill="#ED876A"/>
<path d="M81.0071 40.3682C81.6009 41.6938 82.2728 42.4855 82.2548 43.2653C81.9189 60.1384 81.511 77.0174 81.0971 93.8905C81.0911 94.1664 80.9111 94.4363 80.4793 95.612C79.6515 94.0704 78.6738 93.1047 78.7038 92.169C79.2196 75.3979 79.8615 58.6328 80.4853 41.8677C80.4973 41.6038 80.6592 41.3459 81.0071 40.3682Z" fill="#A5BBF9"/>
<path d="M69.8848 94.7005C71.4923 90.3758 72.9379 86.4829 74.7193 81.6963C75.829 87.1067 76.7587 91.6594 77.8144 96.8179C75.0313 96.0741 72.632 95.4323 69.8908 94.7005H69.8848Z" fill="#A5BBF9"/>
<path d="M91.8328 47.2842C88.5757 42.9175 85.3187 38.5507 81.9297 34.0101C82.9074 33.4282 83.7292 32.9424 84.8988 32.2466C87.4121 37.2431 89.8714 42.1197 92.3246 46.9963C92.1567 47.0922 91.9947 47.1882 91.8268 47.2842H91.8328Z" fill="#93D1C1"/>
<path d="M90.6698 48.448C88.0486 45.9888 85.5413 43.3915 82.7701 41.1242C80.6947 39.4207 80.2569 37.5732 81.1866 34.748C84.6236 39.3607 87.8566 43.6974 91.0897 48.0342C90.9517 48.1721 90.8138 48.3161 90.6758 48.454L90.6698 48.448Z" fill="#ED876A"/>
<path d="M68.5668 68.2479C67.2412 66.0705 65.9096 63.8932 64.584 61.7158C66.4434 63.6113 69.2626 64.8769 69.3286 67.912C69.0767 68.026 68.8187 68.1339 68.5668 68.2479Z" fill="#A5BBF9"/>
</svg>
