<svg width="113" height="83" viewBox="0 0 113 83" fill="none" xmlns="http://www.w3.org/2000/svg">
<path d="M70.4331 58.4689C72.7187 53.4492 74.8179 48.7133 77.0427 44.0342C77.6263 42.8056 77.4804 42.0271 76.6172 41.0053C73.0429 36.7843 69.5658 32.4782 66.0564 28.1964C65.5944 27.6369 65.1648 27.049 64.5488 26.2542C70.8829 24.9689 76.9819 23.7038 83.1012 22.5523C83.5632 22.4671 84.4183 23.0916 84.6979 23.6025C87.8426 29.3358 90.9104 35.1097 94.3266 41.4837C93.8808 41.7392 93.2081 41.9825 92.7218 42.4285C87.8994 46.8562 82.9634 51.1745 78.376 55.8334C76.1066 58.1405 73.594 58.4933 70.4371 58.4689H70.4331Z" fill="#F3A43A"/>
<path d="M64.0137 26.8098C68.2283 31.939 72.3052 36.8736 76.3212 41.8528C76.6049 42.2015 76.6413 43.0084 76.4468 43.4463C71.7337 53.8913 66.9761 64.3119 62.2185 74.7365C62.1698 74.846 62.0321 74.9149 61.7362 75.1866C61.0757 71.2779 60.4354 67.5191 59.8032 63.7564C59.0292 59.1705 58.1984 54.5927 57.5338 49.9866C57.3474 48.7053 57.4284 47.278 57.8053 46.0413C59.5722 40.239 61.485 34.4813 63.3491 28.7115C63.5274 28.156 63.7341 27.6126 64.0178 26.8098H64.0137Z" fill="#93D1C1"/>
<path d="M96.2714 48.6485C95.6919 39.2983 89.7347 32.2877 85.8605 24.3851C84.9446 22.5199 84.8514 21.3481 86.3265 19.8438C87.9719 18.1651 89.4996 16.3284 90.8208 14.3821C92.381 12.0831 94.7071 11.2316 96.9684 10.3679V48.535L96.2714 48.6525V48.6485Z" fill="#ED876A"/>
<path d="M5.64506 59.8759C17.8836 60.7152 30.1222 61.5586 42.3567 62.3979C42.4904 62.406 42.6282 62.4587 42.7579 62.4385C48.4598 61.5018 51.6045 64.3766 53.339 69.4612C53.6591 70.4019 54.267 71.2412 55.0046 72.6117C38.2596 68.4029 21.9159 64.2915 5.57617 60.184C5.60049 60.0786 5.62075 59.9772 5.64506 59.8718V59.8759Z" fill="#ED876A"/>
<path d="M55.8026 72.5673C54.0155 69.283 52.3013 66.1608 50.6316 63.0144C50.4695 62.7103 50.4898 62.2034 50.6154 61.8669C52.7187 56.2592 54.8503 50.6678 57.1278 45.0925C55.6729 49.0499 57.5087 52.7641 57.918 56.5593C58.2665 59.7706 58.7893 62.986 59.5309 66.1284C60.0294 68.2531 59.6971 69.7614 57.8167 70.9211C57.144 71.3346 56.5848 71.9266 55.8067 72.5713L55.8026 72.5673Z" fill="#F3A43A"/>
<path d="M102.784 50.7773C101.268 50.0961 99.7121 49.4716 98.2451 48.685C97.848 48.4701 97.5116 47.7524 97.5116 47.2618C97.4711 36.6628 97.4792 26.0597 97.4792 15.4607C97.771 15.3553 98.0668 15.2458 98.3586 15.1404C98.8408 15.7689 99.6878 16.3568 99.7526 17.0258C100.871 28.1682 101.892 39.3227 102.934 50.4732C102.938 50.5259 102.881 50.5867 102.784 50.7813V50.7773Z" fill="#A5BBF9"/>
<path d="M102.298 6.59302C105.512 10.5301 108.734 14.4835 111.951 18.4247C110.303 20.1844 108.543 20.5047 106.671 19.3856C104.13 17.8692 101.642 16.2635 99.036 14.8687C97.3623 13.9726 97.9418 12.5494 98.0269 11.3492C98.0796 10.6234 98.7928 9.86923 99.3602 9.26913C100.211 8.36898 101.192 7.59048 102.298 6.59707V6.59302Z" fill="#F3A43A"/>
<path d="M87.7207 47.9915C89.9496 45.9277 91.9515 44.0706 94.306 41.8892C95.0638 45.729 95.7487 49.212 96.5268 53.1613C93.4266 51.3407 90.7317 49.7594 87.7207 47.9915Z" fill="#93D1C1"/>
<path d="M75.3287 69.737C74.4695 66.2783 73.6104 62.8237 72.6621 59.0001C76.0176 59.6164 77.7115 57.216 80.0377 55.5901C78.6193 60.326 77.205 65.0578 75.7866 69.7938C75.6326 69.7735 75.4827 69.7573 75.3287 69.737Z" fill="#93D1C1"/>
<path d="M93.4258 10.826C94.8036 8.25124 96.1369 5.91572 97.3081 3.50317C97.8673 2.35163 98.5684 1.95832 99.8125 2.09618C100.992 2.22593 102.195 2.12457 103.606 2.12457C101.758 7.03888 98.4428 9.73526 93.4258 10.826Z" fill="#93D1C1"/>
<path d="M62.1328 76.7031C62.8461 75.1501 63.4823 73.7675 64.2158 72.1699C68.3129 75.1664 72.2641 78.0533 76.2112 80.9362C76.1585 81.0619 76.1058 81.1876 76.0491 81.3133C71.4576 79.7928 66.8661 78.2723 62.1328 76.7031Z" fill="#A5BBF9"/>
<path d="M87.4522 74.927C83.659 73.8565 79.8699 72.7861 75.9512 71.6791C76.4051 70.2316 76.8022 68.9706 77.2601 67.5068C80.8142 69.9437 84.1899 72.259 87.5656 74.5742C87.5292 74.6918 87.4887 74.8094 87.4522 74.927Z" fill="#A5BBF9"/>
<path d="M102.428 5.57129C104.341 4.01022 104.105 0.170409 108.203 1.11921C107.108 3.5196 106.026 5.89161 104.811 8.56367C103.915 7.43646 103.226 6.56875 102.428 5.57129Z" fill="#A5BBF9"/>
</svg>
