<svg width="76" height="106" viewBox="0 0 76 106" fill="none" xmlns="http://www.w3.org/2000/svg">
<path d="M32.4812 89.8551C24.6528 77.2951 17.0569 65.0987 9.37891 52.7857C17.0501 40.4865 24.7007 28.2283 32.4812 15.7576C39.5986 19.4755 46.4424 23.0425 53.2795 26.63C53.6692 26.8358 54.0179 27.1788 54.305 27.5218C61.1831 35.8905 68.0543 44.273 75.0349 52.7857C68.0885 61.2574 61.2378 69.6398 54.3392 77.9948C53.8538 78.5847 53.1222 79.0237 52.4317 79.3873C45.9023 82.8377 39.3524 86.2538 32.4812 89.8551Z" fill="#F3A43A"/>
<path d="M9.07169 52.3374C5.90634 45.3207 2.94969 38.7885 0 32.2493C0.146093 32.0694 0.292186 31.8826 0.431323 31.7026C5.5585 34.7889 10.6857 37.8681 15.945 41.0374C13.6493 44.8087 11.5066 48.3308 9.07169 52.3374Z" fill="#A5BBF9"/>
<path d="M15.945 64.6048C10.563 67.8637 5.56238 70.8868 0.561787 73.9099C0.374525 73.792 0.187262 73.6672 0 73.5493C2.94071 66.9623 5.88835 60.3753 9.05794 53.2751C11.4923 57.2828 13.6285 60.7913 15.9381 64.6048H15.945Z" fill="#A5BBF9"/>
<path d="M29.1805 86.11C30.1903 87.7266 30.9476 88.9442 31.8892 90.4458C21.8594 95.6338 12.0276 100.72 2.2025 105.8C2.09333 105.611 1.98417 105.428 1.875 105.239C10.8881 98.9211 19.9012 92.6103 29.1873 86.1033L29.1805 86.11Z" fill="#ED876A"/>
<path d="M31.8892 15.4072C30.8594 17.009 30.0751 18.2172 29.1203 19.6968C19.9272 13.2421 10.8977 6.9027 1.875 0.563344C1.98412 0.373299 2.09323 0.190041 2.20235 -3.88374e-06C11.9888 5.07691 21.7685 10.1538 31.8892 15.4072Z" fill="#ED876A"/>
</svg>
