<svg width="92" height="83" viewBox="0 0 92 83" fill="none" xmlns="http://www.w3.org/2000/svg">
<path d="M54.3202 82.0658C51.2446 80.5303 48.3909 78.9995 45.4448 77.686C43.9093 77.0015 43.6966 76.2754 44.1961 74.6936C48.6869 60.3885 53.0714 46.0511 57.4883 31.7229C58.4642 28.564 59.4077 25.3959 60.4483 22.2555C60.6703 21.5895 61.1143 20.7663 61.6832 20.4888C71.0349 15.9794 80.419 11.5487 90.2656 6.88208C89.0631 10.8781 87.9901 14.4486 86.9125 18.0237C83.6981 28.6981 80.4976 39.3772 77.2601 50.0471C76.9965 50.9166 76.6727 51.8231 76.1455 52.5446C69.0785 62.1692 61.9745 71.7614 54.8752 81.3628C54.7411 81.5478 54.5884 81.7236 54.3156 82.0658H54.3202Z" fill="#ED876A"/>
<path d="M29.4111 40.7275C33.5135 44.742 37.3846 48.4836 41.1863 52.2993C41.6673 52.7849 41.9448 53.622 42.0281 54.325C42.6663 59.7501 43.3184 65.1752 43.7671 70.6188C43.9104 72.3809 43.4618 74.1986 43.2306 76.5296C40.3954 75.1236 38.0922 73.9858 35.7982 72.8434C33.3886 71.6409 30.9512 70.4986 28.5925 69.2082C27.1772 68.4312 26.2106 68.5098 24.9896 69.717C21.4978 73.1672 17.844 76.4509 13.8989 80.137C13.2144 75.6786 12.5854 71.6317 11.9703 67.5848C11.3737 63.6305 10.8464 59.6669 10.1758 55.7264C9.92604 54.2464 10.2637 53.3769 11.5864 52.5259C17.5943 48.6548 23.5143 44.6542 29.4111 40.7368V40.7275Z" fill="#F3A43A"/>
<path d="M22.3714 13.3245V19.9706C27.9306 20.8956 33.4991 21.8206 39.3636 22.7965C36.4036 27.8747 33.6239 32.7125 30.7426 37.4901C30.4836 37.9202 29.5771 38.1977 28.9943 38.1653C20.8544 37.7306 12.7144 37.245 4.57903 36.7131C4.09341 36.6807 3.33028 36.2783 3.21466 35.8898C2.61803 33.9057 2.07691 31.8892 1.78091 29.8496C1.68841 29.2114 2.29429 28.3095 2.82153 27.7684C7.16902 23.3053 11.572 18.893 15.9657 14.4762C17.8219 12.6107 19.9571 12.2269 22.3714 13.3245ZM14.8095 23.1064C15.4524 23.3608 16.0952 23.6105 16.7381 23.8649C15.9981 24.2534 15.2627 24.6419 14.5227 25.0304C14.5644 24.5078 14.606 23.9851 14.6476 23.4625C15.2257 24.0036 15.8039 24.5401 16.3774 25.0813C15.8039 25.1136 15.2304 25.1414 14.6569 25.1738C15.3321 24.628 16.0027 24.0869 16.678 23.5411C16.493 24.1146 16.308 24.6928 16.123 25.2663C15.6836 24.5448 15.2489 23.8279 14.8095 23.1064Z" fill="#F3A43A"/>
<path d="M51.6417 82.4682H22.4766C23.9242 78.1854 25.3857 73.8611 26.9212 69.3147C35.3618 73.5188 43.585 77.6165 51.8036 81.7097C51.7481 81.964 51.6972 82.2138 51.6417 82.4682Z" fill="#93D1C1"/>
<path d="M39.1002 21.9179C33.4022 20.9929 28.3425 20.1696 23.0469 19.3094C23.2874 13.6947 23.5232 8.20943 23.7869 2.00732C29.0501 8.8523 33.8925 15.1423 39.1002 21.9179Z" fill="#ED876A"/>
<path d="M14.1616 38.1238C19.3462 38.4568 24.3551 38.7759 29.3639 39.095C29.4287 39.28 29.4934 39.465 29.5582 39.6546C23.3006 43.8171 17.0476 47.9796 10.1934 52.5399C11.6271 47.3275 12.8805 42.7858 14.1616 38.1284V38.1238Z" fill="#93D1C1"/>
<path d="M44.5203 69.3562C46.3702 62.6269 48.2156 55.8975 50.0656 49.1681C52.7712 39.3077 55.5092 29.4518 58.1547 19.5729C58.5802 17.9911 59.311 17.1817 60.9112 16.6684C67.1364 14.675 73.3062 12.4966 79.4944 10.4015C80.0494 10.2119 80.6275 10.1009 81.2981 10.2535C75.059 13.2135 68.8384 16.229 62.5623 19.1057C60.902 19.8689 59.9677 20.8355 59.4127 22.6623C54.7415 38.119 49.9454 53.5341 45.1816 68.9585C45.1215 69.1527 45.0105 69.3331 44.918 69.5227L44.5156 69.3608L44.5203 69.3562Z" fill="#A5BBF9"/>
<path d="M17.2505 1.8501C21.2372 5.89696 22.7958 9.60157 22.4304 12.7188C19.193 11.3313 17.8055 12.0297 15.2617 14.3376C15.9138 10.3832 16.5706 5.95708 17.2505 1.8501Z" fill="#ED876A"/>
<path d="M15.0273 80.1696C18.3666 77.0477 21.7058 73.9305 25.0451 70.8086C25.1884 70.8687 25.3318 70.9242 25.4752 70.9843C24.4253 74.0831 23.4078 77.1957 22.2793 80.2621C22.1683 80.5627 21.3821 80.7431 20.9011 80.7569C19.0095 80.8124 17.1132 80.7801 15.217 80.7801C15.1568 80.5766 15.0921 80.3731 15.032 80.1649L15.0273 80.1696Z" fill="#A5BBF9"/>
<path d="M11.091 69.398C9.81911 64.3013 8.53337 59.2045 7.29849 54.0985C7.18287 53.6129 7.24299 52.9932 7.44649 52.5399C8.63049 49.8898 9.87924 47.2674 11.4517 44.6636C7.25224 52.9192 10.6377 61.1331 11.091 69.4026V69.398Z" fill="#A5BBF9"/>
</svg>
